<svg xmlns="http://www.w3.org/2000/svg" width="34.604" height="13.585" viewBox="0 0 34.604 13.585">
  <g id="Groupe_122" data-name="Groupe 122" transform="translate(-56.679 -48.616)">
    <g id="Groupe_19" data-name="Groupe 19" transform="translate(56.679 48.616)">
      <path id="Tracé_1" data-name="Tracé 1" d="M50.871,41.177a3.082,3.082,0,1,1-3.334-2.81,3.082,3.082,0,0,1,3.334,2.81" transform="translate(-44.717 -38.356)" fill="#0662a8"/>
      <path id="Tracé_2" data-name="Tracé 2" d="M58.326,48a2.47,2.47,0,1,1-2.671-2.251A2.471,2.471,0,0,1,58.326,48" transform="translate(-45.852 -39.322)" fill="#0662a8"/>
      <path id="Tracé_3" data-name="Tracé 3" d="M67.371,50.97a2.175,2.175,0,1,1-2.353-1.983,2.175,2.175,0,0,1,2.353,1.983" transform="translate(-47.113 -39.746)" fill="#0662a8"/>
      <path id="Tracé_4" data-name="Tracé 4" d="M75.8,49.645a1.75,1.75,0,1,1-1.893-1.594A1.75,1.75,0,0,1,75.8,49.645" transform="translate(-48.327 -39.624)" fill="#0662a8"/>
      <path id="Tracé_5" data-name="Tracé 5" d="M80.965,46.088a1.111,1.111,0,1,1-1.2-1.013,1.111,1.111,0,0,1,1.2,1.013" transform="translate(-49.169 -39.235)" fill="#0662a8"/>
      <path id="Tracé_19" data-name="Tracé 19" d="M84.339,41.834a.625.625,0,1,1-.676-.569.625.625,0,0,1,.676.569" transform="translate(-49.738 -38.736)" fill="#0662a8"/>
    </g>
  </g>
</svg>
