<svg id="Groupe_163" data-name="Groupe 163" xmlns="http://www.w3.org/2000/svg" xmlns:xlink="http://www.w3.org/1999/xlink" width="289.642" height="184.985" viewBox="0 0 289.642 184.985">
  <defs>
    <clipPath id="clip-path">
      <rect id="Rectangle_214" data-name="Rectangle 214" width="289.642" height="184.985" fill="none"/>
    </clipPath>
  </defs>
  <g id="Groupe_162" data-name="Groupe 162" transform="translate(0 0)" clip-path="url(#clip-path)">
    <path id="Tracé_137" data-name="Tracé 137" d="M68.977,49.478A12.152,12.152,0,1,1,55.833,38.4,12.15,12.15,0,0,1,68.977,49.478" transform="translate(108.507 93.073)" fill="#005199"/>
    <path id="Tracé_138" data-name="Tracé 138" d="M72.837,54.648a9.739,9.739,0,1,1-10.53-8.875,9.743,9.743,0,0,1,10.53,8.875" transform="translate(129.561 110.981)" fill="#005199"/>
    <path id="Tracé_139" data-name="Tracé 139" d="M80.149,56.827a8.575,8.575,0,1,1-9.276-7.816,8.576,8.576,0,0,1,9.276,7.816" transform="translate(152.941 118.851)" fill="#005199"/>
    <path id="Tracé_140" data-name="Tracé 140" d="M86.081,54.355a6.9,6.9,0,1,1-7.463-6.284,6.9,6.9,0,0,1,7.463,6.284" transform="translate(175.452 116.581)" fill="#005199"/>
    <path id="Tracé_141" data-name="Tracé 141" d="M87.493,49.079a4.381,4.381,0,1,1-4.739-3.992,4.38,4.38,0,0,1,4.739,3.992" transform="translate(191.081 109.367)" fill="#005199"/>
    <path id="Tracé_142" data-name="Tracé 142" d="M71,84.348V43.531c0-10.149-2.755-12.558-6.366-12.558s-6.2,2.409-6.2,12.558V84.348H24.023V34.067C24.023,14.107,40.714,0,61.016,0,71.172,0,81.15,3.612,88.205,10.667,95.257,3.612,105.239,0,115.392,0c20.3,0,37,14.107,37,34.067v48.27L117.972,99.705V43.531c0-10.149-2.58-12.558-6.192-12.558s-6.37,2.409-6.37,12.558V84.348Z" transform="translate(58.293 0)" fill="#005199"/>
    <path id="Tracé_143" data-name="Tracé 143" d="M120.819,49.487c-5.01-4.437-8.854-6.281-15.721-6.281-12.736,0-22.468,9.447-22.468,22.9s9.783,23.784,22.519,23.784c8.364,0,15.968-5.325,17.489-11.194H100.393V54.37h55.5v5.722c0,30.047-17.883,57.8-51.223,57.8-29.331,0-53.224-22.033-53.224-50.935,0-30.044,22.461-52.652,51.22-52.652,15.31,0,29.03,4.276,40.19,14.576Z" transform="translate(124.826 34.716)" fill="#005199"/>
    <path id="Tracé_144" data-name="Tracé 144" d="M9.046,44.434v-10a3.933,3.933,0,1,0-7.836,0v10H0v-10c0-3.505,2.292-5.414,5.13-5.414a4.271,4.271,0,0,1,4.489,2.961h.065a4.271,4.271,0,0,1,4.489-2.961c2.837,0,5.13,1.909,5.13,5.414v10H18.089v-10a3.931,3.931,0,1,0-7.833,0v10Z" transform="translate(0 70.42)" fill="#005199"/>
    <path id="Tracé_145" data-name="Tracé 145" d="M8.032,29.114v9.043a4.856,4.856,0,1,0,9.683,0V29.114h1.21v9.2a5.933,5.933,0,0,1-6.051,6.209,5.933,5.933,0,0,1-6.051-6.209v-9.2Z" transform="translate(16.554 70.646)" fill="#005199"/>
    <rect id="Rectangle_213" data-name="Rectangle 213" width="1.21" height="22.293" transform="translate(40.639 92.561)" fill="#005199"/>
    <path id="Tracé_146" data-name="Tracé 146" d="M15.048,32.045H20.4v1.148H15.048v9.745a2.78,2.78,0,0,0,2.93,3.056H20.4v1.144H18.234c-2.868,0-4.4-1.655-4.4-4.331v-14.9h1.21Z" transform="translate(33.578 67.715)" fill="#005199"/>
    <path id="Tracé_147" data-name="Tracé 147" d="M17.908,27.59a.954.954,0,1,1-.959.953.934.934,0,0,1,.959-.953M17.3,32.812h1.21V47.906H17.3Z" transform="translate(41.127 66.948)" fill="#005199"/>
    <path id="Tracé_148" data-name="Tracé 148" d="M30.147,43.87a8.572,8.572,0,0,1-3.6,1.018,7.671,7.671,0,0,1-7.9-7.768c0-4.588,3.122-8.155,7.9-8.155a7.454,7.454,0,0,1,7.514,7.58V43.36c0,5.733-3.5,8.474-7.991,8.474a15.948,15.948,0,0,1-5.034-.894l.668-2.546a16.326,16.326,0,0,0,4.235.764c2.515,0,5.318-1.117,5.318-4.842V37.182c0-3.44-2.227-5.541-4.842-5.541-3.341,0-4.965,2.642-4.965,5.637a4.833,4.833,0,0,0,5.126,4.938,7.278,7.278,0,0,0,3.567-1.244Z" transform="translate(45.257 70.285)" fill="#005199"/>
    <path id="Tracé_149" data-name="Tracé 149" d="M24.142,29.284h2.676v1.751h.065a4.4,4.4,0,0,1,4.139-2.07h.637v2.676h-.415c-2.707,0-4.3,1.655-4.3,5.794v7.134h-2.8Z" transform="translate(58.581 70.285)" fill="#005199"/>
    <path id="Tracé_150" data-name="Tracé 150" d="M39.574,44.569v-8.6c0-2.868-2.419-4.331-4.968-4.331a5.038,5.038,0,0,0-5.03,5.349,5.038,5.038,0,0,0,5,5.222,4.949,4.949,0,0,0,3.851-2.1v3.31a6.229,6.229,0,0,1-4.139,1.467c-4.393,0-7.514-3.632-7.514-8.121a7.5,7.5,0,0,1,7.9-7.8c4.711,0,7.706,2.865,7.706,7.261v8.344Z" transform="translate(64.963 70.285)" fill="#005199"/>
    <path id="Tracé_151" data-name="Tracé 151" d="M32.282,51.45V37.374c0-5.03,3.218-8.409,7.706-8.409,4.968,0,7.9,3.824,7.9,8.344a7.512,7.512,0,0,1-7.357,7.579A8.621,8.621,0,0,1,36.2,43.809V40.876a7.574,7.574,0,0,0,3.855,1.34c3.026,0,5.034-2.1,5.034-5.256a5,5,0,0,0-5.1-5.318c-2.673,0-4.9,2.039-4.9,6.243V51.45Z" transform="translate(78.333 70.285)" fill="#005199"/>
    <path id="Tracé_152" data-name="Tracé 152" d="M37.589,49.306V27.013h2.8v8.344A5.32,5.32,0,0,1,44.308,33.7c3.536,0,6.336,1.528,6.336,6.689v8.916h-2.8V40.39c0-3.122-1.724-4.012-3.728-4.012a3.8,3.8,0,0,0-3.725,4.012v8.916Z" transform="translate(91.211 65.548)" fill="#005199"/>
    <path id="Tracé_153" data-name="Tracé 153" d="M44.279,27.571A1.688,1.688,0,1,1,42.59,29.26a1.637,1.637,0,0,1,1.689-1.689m-1.4,5.1h2.8V47.952h-2.8Z" transform="translate(103.346 66.902)" fill="#005199"/>
    <path id="Tracé_154" data-name="Tracé 154" d="M54.976,31.734H52.814a4.976,4.976,0,1,0,0,9.937h2.162v2.673H52.3a7.643,7.643,0,1,1,0-15.286h2.676Z" transform="translate(108.291 70.51)" fill="#005199"/>
    <path id="Tracé_155" data-name="Tracé 155" d="M88.011,43.516a2.464,2.464,0,1,1-2.666-2.244,2.463,2.463,0,0,1,2.666,2.244" transform="translate(201.624 100.124)" fill="#005199"/>
  </g>
</svg>
