<svg xmlns="http://www.w3.org/2000/svg" xmlns:xlink="http://www.w3.org/1999/xlink" width="46" height="46" viewBox="0 0 46 46">
  <defs>
    <clipPath id="clip-path">
      <rect id="Rectangle_9" data-name="Rectangle 9" width="25.625" height="18.303" fill="#fff"/>
    </clipPath>
  </defs>
  <g id="Groupe_10" data-name="Groupe 10" transform="translate(-1844 -437)">
    <circle id="Ellipse_4" data-name="Ellipse 4" cx="23" cy="23" r="23" transform="translate(1844 437)"/>
    <g id="Groupe_3" data-name="Groupe 3" transform="translate(1854.188 451.738)">
      <g id="Groupe_5" data-name="Groupe 5" clip-path="url(#clip-path)">
        <path id="Tracé_21" data-name="Tracé 21" d="M2.44,0A2.449,2.449,0,0,0,0,2.44V15.863A2.449,2.449,0,0,0,2.44,18.3H23.184a2.449,2.449,0,0,0,2.44-2.44V2.44A2.449,2.449,0,0,0,23.184,0Zm0,1.22H23.184a1.231,1.231,0,0,1,.477.1L13.689,9.981a1.268,1.268,0,0,1-1.773,0L1.964,1.315a1.231,1.231,0,0,1,.477-.1Zm-1.2,1.087L11.115,10.9a2.565,2.565,0,0,0,3.375,0l9.9-8.589a1.25,1.25,0,0,1,.019.133V15.863a1.2,1.2,0,0,1-1.22,1.22H2.441a1.2,1.2,0,0,1-1.22-1.22V2.44a1.2,1.2,0,0,1,.019-.133Z" fill="#fff"/>
      </g>
    </g>
  </g>
</svg>
