<svg xmlns="http://www.w3.org/2000/svg" width="94.611" height="37.143" viewBox="0 0 94.611 37.143">
  <g id="Groupe_18" data-name="Groupe 18" transform="translate(-56.679 -48.616)">
    <g id="Groupe_19" data-name="Groupe 19" transform="translate(56.679 48.616)">
      <path id="Tracé_1" data-name="Tracé 1" d="M61.542,46.07a8.428,8.428,0,1,1-9.116-7.683,8.426,8.426,0,0,1,9.116,7.683" transform="translate(-44.717 -38.356)"></path>
      <path id="Tracé_2" data-name="Tracé 2" d="M66.878,51.917a6.755,6.755,0,1,1-7.3-6.155,6.757,6.757,0,0,1,7.3,6.155" transform="translate(-32.775 -28.198)"></path>
      <path id="Tracé_3" data-name="Tracé 3" d="M74.9,54.422A5.947,5.947,0,1,1,68.469,49,5.948,5.948,0,0,1,74.9,54.422" transform="translate(-19.513 -23.734)"></path>
      <path id="Tracé_4" data-name="Tracé 4" d="M81.86,52.421a4.786,4.786,0,1,1-5.176-4.358,4.785,4.785,0,0,1,5.176,4.358" transform="translate(-6.744 -25.021)"></path>
      <path id="Tracé_5" data-name="Tracé 5" d="M84.813,47.851a3.039,3.039,0,1,1-3.287-2.769,3.038,3.038,0,0,1,3.287,2.769" transform="translate(2.121 -29.114)"></path>
      <path id="Tracé_19" data-name="Tracé 19" d="M86.5,42.825a1.709,1.709,0,1,1-1.849-1.557A1.708,1.708,0,0,1,86.5,42.825" transform="translate(8.101 -34.356)"></path>
    </g>
  </g>
</svg>
